<?xml version="1.0" encoding="utf-8"?>
<svg id="master-artboard" viewBox="0 0 1311.232177734375 887.8825073242188" version="1.1" xmlns="http://www.w3.org/2000/svg" x="0px" y="0px" width="1311.232177734375px" height="887.8825073242188px" enable-background="new 0 0 1400 980"><rect id="ee-background" x="0" y="0" width="1311.232177734375" height="887.8825073242188" style="fill: white; fill-opacity: 0; pointer-events: none;"/>
<g transform="matrix(1, 0, 0, 1, -40.196800231933594, -55.27060031890869)">
		<g>
			<path d="M 0 0 H 1400 V 980 H 0 V 0 Z" id="XMLID_6_" fill="#008142"/>
		</g>
	</g><path d="M 17.299999 290.299988 H 1382.799999 V 689.599976 H 17.299999 V 290.299988 Z" fill="#006032" transform="matrix(1, 0, 0, 1, -40.196800231933594, -55.27060031890869)"/><path id="XMLID_7_" fill="#00954C" d="M636.7,212.9c49.8-45.5,350.7,7.4,446.4,0c95.7-7.4,67.3-22.3,142.5-67.1&#10;&#9;&#9;&#9;c49.2-29.3,110.2-26.2,146.4-20.6v133.2H28v-33.6C150.8,231.3,593.8,252.1,636.7,212.9z" transform="matrix(1, 0, 0, 1, -40.196800231933594, -55.27060031890869)"/><path id="XMLID_8_" fill="#00954C" d="M763.3,767.1c-49.8,45.5-350.7-7.4-446.4,0c-95.7,7.4-67.3,22.3-142.5,67.1&#10;&#9;&#9;&#9;C125.3,863.5,64.3,860.4,28,854.7V721.6H1372v33.6C1249.2,748.7,806.2,727.9,763.3,767.1z" transform="matrix(1, 0, 0, 1, -40.196800231933594, -55.27060031890869)"/><path fill="#839E64" d="M241,513.1h5.6v-21h-12.1c-3.1-34.7-23.5-62.1-48.9-65.6v-3.9h-4.8l-1-65.8l-1,65.8h-4.1v3.9&#10;&#9;&#9;&#9;c-19.6,2.7-36,19.6-44,43.1V454h3.9v-8.2h-2.1c-0.3-7.9-5.2-14.2-11.3-14.5l-0.9-28.8l-0.9,28.8c-5.8,0.8-10.3,6.9-10.6,14.5h-2.1&#10;&#9;&#9;&#9;v8.2h3.9v16.1h-4.3v8h3.8v5.8H50.4v12.7h2v6h0.6v2.8h0.8v17.5c-0.8,2-1.3,4.4-1.3,6.9h-1.8v8.2h3.2v3.9H11.9v26H4v12.7h0.3v6h0.5&#10;&#9;&#9;&#9;v2.8h0.7v77.1H4v212.4h27.2h74.9h11.3h45.1H199v-22.1h31.3h4.7h29v-5.8h-5.4v-5.8h-5.4v-5.8h-5.4v-5.8h-5.4v-5.8h-5.4v-5.8h-2v-15&#10;&#9;&#9;&#9;H199v-68.6h8.6v-76.6h-0.2v-79.6l6-5.5h50.7v-34.8H241V513.1z M17,647.3c-2,2.4-3.9,5-5.7,7.9v-65.8H12v-2.8h0.5v-6h3.3v6h0.5v2.8&#10;&#9;&#9;&#9;H17V647.3z M32.6,635.5c-3.4,1.4-6.7,3.4-9.7,6v-52.1h0.7v-2.8h0.5v-6h8.5V635.5z M61.3,541.8h-0.7v-3.9h0.7V541.8z M61.6,515.2&#10;&#9;&#9;&#9;c-0.3,0-0.6,0.1-0.9,0.2v-10h0.8v-2.8h0.5L61.6,515.2z M65,541.8h-1.1v-3.9H65V541.8z M67.3,516.9c-1.3-1-2.7-1.6-4.2-1.7&#10;&#9;&#9;&#9;l-0.5-18.6h3.3v6h0.6v2.8h0.8V516.9z M85.4,525.4c-3.8,4.6-7.1,10.2-9.9,16.4h-1.4v-3.9h0.4v-8.2h-0.4v-21.9h11.3V525.4z&#10;&#9;&#9;&#9; M114.7,470.1h-0.8l-0.2-16.1h1V470.1z M118.9,470.1h-1.3V454h1.3V470.1z M123.2,470.1h-1.3V454h1.3V470.1z M127.5,470.1h-1.3V454&#10;&#9;&#9;&#9;h1.3V470.1z" transform="matrix(1, 0, 0, 1, -40.196800231933594, -55.27060031890869)"/><path fill="#659357" d="M868.5,961.9v-13.1h-12.8v-13.1h-12.8v-13.1h-12.8v-13.1h-12.8v-13.1h-12.8v-13.1h-12.8v-13.1h-20.8v-12.5&#10;&#9;&#9;&#9;h-12.8v-13.1h-9.6v-21.4h-16v-4.8h-11.7v-10.7h-1.1v-2.4h-12.8v-13.1h-6.4v-4.8H565V676.3h19.2v-29.8H569&#10;&#9;&#9;&#9;c-3.7-18.3-21.1-32.2-42.1-32.2c-20.9,0-38.4,13.9-42.1,32.2h-13.8v29.8h19.2v111.2h-21.5l-2.5-71.6h3.5v-14.4h-5.7v-29.3h5.1&#10;&#9;&#9;&#9;v-14.8h-1.7c-0.2-12.7-7-22.9-15.7-23.9l-1.2-59l-1.2,59c-8.7,0.9-15.5,11.2-15.7,23.9h-1.7v14.8h5.1v29.3h-5.7v14.4h3.5&#10;&#9;&#9;&#9;l-2.5,71.6h-7.3v14.2h-0.1v-43h6.7v-27.7h-14.4c-3.7-45.9-28-82-58.3-86.6v-5.1h-5.7l-1.2-86.9l-1.2,86.9h-4.9v5.2&#10;&#9;&#9;&#9;c-23.3,3.6-43,25.9-52.4,56.8v-20.6h4.6v-10.8h-2.5c-0.4-10.4-6.2-18.7-13.5-19.2l-1-38l-1,38.1c-6.9,1-12.2,9.1-12.6,19.1h-2.5&#10;&#9;&#9;&#9;v10.8h4.6v21.3h-5.1v10.5h4.5v7.7h-70.8v16.8h2.4v7.9h0.7v3.8h0.9v7.7h-23.6v17.1h23.6v43.8h-23.6v17.1h23.6v16.1h-7.3v15.8h-41.7&#10;&#9;&#9;&#9;v12H81.7v20.2h-2.9v7.8h-7.7v7.8h-7.7v7.8h-7.7v7.8h-7.7v7.8h-7.7v7.8h41.2h6.7h121.8v7h-12.8v11.4h-12.8V975h64h16h106.2h324.4&#10;&#9;&#9;&#9;h12.8h93.4h16h64v-13.1H868.5z M218.1,850.3h-7.9v-16.1h7.9V850.3z M218.1,817.1h-7.9v-43.8h7.9V817.1z M218.1,756.2h-7.9v-7.7&#10;&#9;&#9;&#9;h0.9v-3.8h0.7v-7.9h4.6v7.9h0.7v3.8h0.9V756.2z M239.8,850.3h-13.5v-16.1h13.5V850.3z M239.8,817.1h-13.5v-43.8h13.5V817.1z&#10;&#9;&#9;&#9; M239.8,756.2h-13.5v-7.7h0.9v-3.8h0.7v-7.9h11.8V756.2z M274.6,701.9H273v-21.3h1.5V701.9z M279.7,701.9h-1.5v-21.3h1.5V701.9z&#10;&#9;&#9;&#9; M284.8,701.9h-1.5v-21.3h1.5V701.9z M289.9,701.9h-1.5v-21.3h1.5V701.9z M442.9,701.5h-1.7v-29.3h1.7V701.5z M448.6,701.5h-1.7&#10;&#9;&#9;&#9;v-29.3h1.7V701.5z M454.4,701.5h-1.7v-29.3h1.7V701.5z M460.1,701.5h-1.7v-29.3h1.7V701.5z M506.3,787.5h-7.5V676.3h7.5V787.5z&#10;&#9;&#9;&#9; M544.7,787.5h-29.9V676.3h29.9V787.5z M557.5,787.5h-4.3V676.3h4.3V787.5z" transform="matrix(1, 0, 0, 1, -40.196800231933594, -55.27060031890869)"/><path fill="#006A30" d="M667.3,966.3v-8.7h-9.5v-8.7h-9.5v-8.7h-9.5v-8.7h-9.5v-8.7h-9.5V914h-9.5v-8.7h-15.5v-8.3h-9.5v-8.7h-9.5&#10;&#9;&#9;&#9;v-8.7h-9.5v-8.7h-9.5v-8.7h-9.5v-8.7h-22.2v-11.9h-7.9v-26.2h-77.3v-12h-54.1v-8.2h-31.6v-10.7h-5.5v-69.2h0.7v-2.6h0.6v-5.4h1.8&#10;&#9;&#9;&#9;V696h-9.8v-23.4h-44.2v-3.5h3.3v-7.3H299c-0.1-2.2-0.6-4.3-1.4-6.2V640h0.8v-2.6h0.6v-5.4h2.1v-11.4h-62.6v-5.2h4v-7.1h-4.5v-14.5&#10;&#9;&#9;&#9;h4.1v-7.3h-2.2c-0.3-6.8-5.1-12.3-11.1-13l-0.9-25.9l-0.9,25.8c-6.4,0.3-11.6,6-11.9,13h-2.2v7.3h4.1v14&#10;&#9;&#9;&#9;c-8.4-21-25.8-36.2-46.4-38.6v-3.5h-4.4l-1.1-59l-1.1,59h-5.1v3.5c-26.8,3.1-48.3,27.7-51.6,58.8H94.6v18.8h5.9v25.8H76.1v31.2&#10;&#9;&#9;&#9;h53.4l6.3,5v71.4h-0.2V849h9v126h334.4h46h92.3h11.9h47.5v-8.7H667.3z M221.4,608.3H220v-14.5h1.4V608.3z M225.9,608.3h-1.4v-14.5&#10;&#9;&#9;&#9;h1.4V608.3z M230.4,608.3H229v-14.5h1.4V608.3z M234.4,608.3h-0.9v-14.5h1.1L234.4,608.3z M276.2,661.8h-0.5v7.3h0.5v3.5h-1.5&#10;&#9;&#9;&#9;c-2.9-5.6-6.4-10.6-10.4-14.7v-15.8h11.9V661.8z M287,672.6h-1.2v-3.5h1.2V672.6z M287.9,648.7c-1.6,0.1-3.1,0.6-4.5,1.6V640h0.8&#10;&#9;&#9;&#9;v-2.6h0.6v-5.4h3.5L287.9,648.7z M290.4,672.6h-0.7v-3.5h0.7V672.6z M290.4,649c-0.3-0.1-0.6-0.1-0.9-0.2l-0.3-11.4h0.5v2.6h0.8&#10;&#9;&#9;&#9;V649z M330.2,784.4H320v-77.1h9v5.4h0.6v2.6h0.7V784.4z M342.4,784.4h-6v-69.2h0.7v-2.6h0.6v-5.4h3.5v5.4h0.6v2.6h0.7V784.4z" transform="matrix(1, 0, 0, 1, -40.196800231933594, -55.27060031890869)"/><path fill="#004B23" d="M544.4,966.3v-8.7h-9.5v-8.7h-9.5v-8.7h-9.5v-8.7h-9.5v-8.7h-3.6v-22.4h-88.7v-13.4h-51.8v-17.6h-9v-17.9&#10;&#9;&#9;&#9;h29.3v-19h-29.3v-48.7h29.3v-19h-29.3V756h1.1v-4.2h0.9v-8.8h3v-18.7h-88v-8.6h5.6v-11.7h-6.3v-23.7h5.7v-12h-3.1&#10;&#9;&#9;&#9;c-0.5-11.1-7.1-20.1-15.6-21.3l-1.3-42.4l-1.3,42.3c-9,0.5-16.2,9.8-16.7,21.4h-3.1v12h5.7v22.9c-11.8-34.5-36.2-59.3-65.1-63.3&#10;&#9;&#9;&#9;v-5.7h-6.1l-1.5-96.7l-1.5,96.7h-7.1v5.7c-37.7,5-67.8,45.3-72.4,96.3H68v30.9h8.3v47.9h-8.6L64,719.7h4.4v-16h-7.1v-32.6h6.4&#10;&#9;&#9;&#9;v-16.5h-2.1c-0.2-14.1-8.7-25.5-19.5-26.6l-1.5-65.7L43,628.1c-10.8,1-19.3,12.5-19.5,26.6h-2.1v16.5h6.4v32.6h-7.1v16h4.4&#10;&#9;&#9;&#9;l-5.7,142.7H4.6V975h237.2h59.8h193h8.3h51.1v-8.7H544.4z M35,703.7h-2.1v-32.6H35V703.7z M42.1,703.7h-2.1v-32.6h2.1V703.7z&#10;&#9;&#9;&#9; M49.2,703.7h-2.1v-32.6h2.1V703.7z M56.3,703.7h-2.1v-32.6h2.1V703.7z M246.1,704.2h-1.9v-23.7h1.9V704.2z M252.5,704.2h-1.9&#10;&#9;&#9;&#9;v-23.7h1.9V704.2z M343.2,832.4h-9.8v-48.7h9.8V832.4z M306.5,783.6h16.7v48.7h-16.7V783.6z M334.5,756v-4.2h0.9v-8.8h5.7v8.8h0.9&#10;&#9;&#9;&#9;v4.2h1.1v8.6h-9.8V756H334.5z M321.2,743.1v8.8h0.9v4.2h1.1v8.6h-16.7v-21.6H321.2z M258.8,704.2h-1.9v-23.7h1.9V704.2z&#10;&#9;&#9;&#9; M263.3,680.4h1.9v23.7h-1.9V680.4z M306.5,869.3v-17.9h16.7v17.9H306.5z M333.4,869.3v-17.9h9.8v17.9H333.4z" transform="matrix(1, 0, 0, 1, -40.196800231933594, -55.27060031890869)"/><path fill="#659357" d="M132.4,903.2h-23.2l0-122.8c0-6.1,4.9-11,11-11h1.1c6.1,0,11,4.9,11,11V903.2z" transform="matrix(1, 0, 0, 1, -40.196800231933594, -55.27060031890869)"/><path fill="#659357" d="M160.2,903.2H137V780.4c0-6.1,4.9-11,11-11h1.1c6.1,0,11,4.9,11,11V903.2z" transform="matrix(1, 0, 0, 1, -40.196800231933594, -55.27060031890869)"/><path fill="#659357" d="M210.9,903.2h-23.2V780.4c0-6.1,4.9-11,11-11h1.1c6.1,0,11,4.9,11,11V903.2z" transform="matrix(1, 0, 0, 1, -40.196800231933594, -55.27060031890869)"/><path fill="#659357" d="M238.7,903.2h-23.2V780.4c0-6.1,4.9-11,11-11h1.1c6.1,0,11,4.9,11,11V903.2z" transform="matrix(1, 0, 0, 1, -40.196800231933594, -55.27060031890869)"/><path fill="#FFFFFF" d="M0,0v980h1400V0H0z M1371.7,891.9c0,37.8-30.6,68.4-68.4,68.4H96.6c-37.8,0-68.4-30.6-68.4-68.4V88.1&#10;&#9;&#9;c0-37.8,30.6-68.4,68.4-68.4h1206.7c37.8,0,68.4,30.6,68.4,68.4V891.9z" transform="matrix(1, 0, 0, 1, -40.196800231933594, -55.27060031890869)"/>
</svg>